<?xml version="1.0" encoding="UTF-8" standalone="no"?>
<!-- Created with Inkscape (http://www.inkscape.org/) -->
<svg
   xmlns:svg="http://www.w3.org/2000/svg"
   xmlns="http://www.w3.org/2000/svg"
   version="1.0"
   width="239.36125"
   height="73.728752"
   id="svg2"
   xml:space="preserve"><defs
     id="defs5"><clipPath
       id="clipPath17"><path
         d="M 0,841.89 L 595.276,841.89 L 595.276,0 L 0,0 L 0,841.89 z"
         id="path19" /></clipPath></defs><g
     transform="matrix(1.25,0,0,-1.25,-227.0525,933.15)"
     id="g11"><path
       d="M 181.642,746.52 L 240.625,746.52 L 240.625,687.537 L 181.642,687.537 L 181.642,746.52 z"
       id="path21"
       style="fill:#231f20;fill-opacity:1;fill-rule:nonzero;stroke:none" /><path
       d="M 247.895,746.52 L 306.878,746.52 L 306.878,687.537 L 247.895,687.537 L 247.895,746.52 z"
       id="path23"
       style="fill:#231f20;fill-opacity:1;fill-rule:nonzero;stroke:none" /><path
       d="M 373.131,746.52 L 314.148,746.52 L 314.148,687.537 L 373.131,687.537 L 373.131,746.52 z"
       id="path25"
       style="fill:#231f20;fill-opacity:1;fill-rule:nonzero;stroke:none" /><path
       d="M 302.151,734.924 C 301.946,736.95 300.139,738.426 298.113,738.222 L 268.923,735.276 C 267.636,735.146 266.512,734.351 265.959,733.181 L 253.441,706.64 C 252.573,704.798 253.361,702.602 255.203,701.733 C 257.044,700.865 259.241,701.653 260.109,703.495 L 271.738,728.149 L 298.854,730.886 C 300.879,731.091 302.355,732.898 302.151,734.924"
       id="path27"
       style="fill:#fff200;fill-opacity:1;fill-rule:nonzero;stroke:none" /><path
       d="M 302.151,734.924 C 301.946,736.95 300.139,738.426 298.113,738.222 L 268.923,735.276 C 267.636,735.146 266.512,734.351 265.959,733.181 L 253.441,706.64 C 252.573,704.798 253.361,702.602 255.203,701.733 C 257.044,700.865 259.241,701.653 260.109,703.495 L 271.738,728.149 L 298.854,730.886 C 300.879,731.091 302.355,732.898 302.151,734.924 z"
       id="path29"
       style="fill:none;stroke:#fff200;stroke-width:0.5;stroke-linecap:butt;stroke-linejoin:miter;stroke-miterlimit:4;stroke-dasharray:none;stroke-opacity:1" /><path
       d="M 235.329,697.737 C 234.892,698.795 224.234,723.662 191.568,725.404 C 189.535,725.512 187.799,723.952 187.691,721.919 C 187.583,719.886 189.143,718.15 191.176,718.042 C 219.066,716.554 228.148,695.789 228.521,694.906 L 228.517,694.918 C 229.295,693.037 231.451,692.143 233.333,692.921 C 235.213,693.7 236.107,695.856 235.329,697.737"
       id="path31"
       style="fill:#fff200;fill-opacity:1;fill-rule:nonzero;stroke:none" /><path
       d="M 235.329,697.737 C 234.892,698.795 224.234,723.662 191.568,725.404 C 189.535,725.512 187.799,723.952 187.691,721.919 C 187.583,719.886 189.143,718.15 191.176,718.042 C 219.066,716.554 228.148,695.789 228.521,694.906 L 228.517,694.918 C 229.295,693.037 231.451,692.143 233.333,692.921 C 235.213,693.7 236.107,695.856 235.329,697.737 z"
       id="path33"
       style="fill:none;stroke:#fff200;stroke-width:0.5;stroke-linecap:butt;stroke-linejoin:miter;stroke-miterlimit:4;stroke-dasharray:none;stroke-opacity:1" /><path
       d="M 362.83,699.14 L 362.83,708.926 C 362.83,716.664 357.706,728.177 343.591,728.177 C 329.476,728.177 324.353,716.664 324.353,708.926 L 324.353,699.14 C 324.353,697.104 326.003,695.453 328.039,695.453 C 330.075,695.453 331.726,697.104 331.726,699.14 L 331.726,708.926 C 331.726,709.045 331.861,720.804 343.591,720.804 C 355.321,720.804 355.457,709.045 355.457,708.926 L 355.457,699.14 C 355.457,697.104 357.107,695.453 359.143,695.453 C 361.179,695.453 362.83,697.104 362.83,699.14"
       id="path79"
       style="fill:#fff200;fill-opacity:1;fill-rule:nonzero;stroke:none" /><path
       d="M 362.83,699.14 L 362.83,708.926 C 362.83,716.664 357.706,728.177 343.591,728.177 C 329.476,728.177 324.353,716.664 324.353,708.926 L 324.353,699.14 C 324.353,697.104 326.003,695.453 328.039,695.453 C 330.075,695.453 331.726,697.104 331.726,699.14 L 331.726,708.926 C 331.726,709.045 331.861,720.804 343.591,720.804 C 355.321,720.804 355.457,709.045 355.457,708.926 L 355.457,699.14 C 355.457,697.104 357.107,695.453 359.143,695.453 C 361.179,695.453 362.83,697.104 362.83,699.14 z"
       id="path81"
       style="fill:none;stroke:#fff200;stroke-width:0.5;stroke-linecap:butt;stroke-linejoin:miter;stroke-miterlimit:4;stroke-dasharray:none;stroke-opacity:1" /></g></svg>